<svg width="340" height="340" viewBox="0 0 340 340" fill="none" xmlns="http://www.w3.org/2000/svg">
<path d="M193.485 68.7458L83.5471 167.748L0 46H184.737C196.693 46 202.379 60.7265 193.485 68.7458Z" fill="url(#paint0_linear_10_2278)"/>
<path style="mix-blend-mode:multiply" d="M71.0078 149.523L0 46H151.785C163.887 46 169.573 60.7265 160.533 68.7458L71.0078 149.523Z" fill="url(#paint1_linear_10_2278)"/>
<path d="M339 46L169.573 293.142L137.933 247.067C122.332 224.176 123.352 193.848 140.703 172.123L241.747 46H339Z" fill="url(#paint2_linear_10_2278)"/>
<path style="mix-blend-mode:multiply" d="M169.573 293.142L137.933 247.067C122.332 224.176 123.352 193.848 140.703 172.123L241.747 46C171.274 150.495 147.216 232.875 169.573 293.142V293.142Z" fill="url(#paint3_linear_10_2278)"/>
<defs>
<linearGradient id="paint0_linear_10_2278" x1="224.25" y1="43.9587" x2="48.262" y2="220.093" gradientUnits="userSpaceOnUse">
<stop stop-color="#1E7AC3"/>
<stop offset="0.6" stop-color="#13BFD1"/>
<stop offset="1" stop-color="#56C79C"/>
</linearGradient>
<linearGradient id="paint1_linear_10_2278" x1="116.499" y1="181.017" x2="68.2374" y2="155.938" gradientUnits="userSpaceOnUse">
<stop stop-color="#1E7AC3"/>
<stop offset="1" stop-color="white"/>
</linearGradient>
<linearGradient id="paint2_linear_10_2278" x1="327.336" y1="145.586" x2="155.138" y2="317.929" gradientUnits="userSpaceOnUse">
<stop stop-color="#1E7AC3"/>
<stop offset="0.6" stop-color="#13BFD1"/>
<stop offset="1" stop-color="#56C79C"/>
</linearGradient>
<linearGradient id="paint3_linear_10_2278" x1="102.502" y1="244.005" x2="161.116" y2="89.8878" gradientUnits="userSpaceOnUse">
<stop stop-color="#1E7AC3"/>
<stop offset="1" stop-color="white"/>
</linearGradient>
</defs>
</svg>
